<svg width="27" height="17" viewBox="0 0 27 17" fill="none" xmlns="http://www.w3.org/2000/svg">
<path d="M1.01424 0.619819C0.881731 0.617971 0.750168 0.642108 0.6272 0.690826C0.504231 0.739543 0.39231 0.811871 0.29794 0.903605C0.203571 0.995339 0.128635 1.10465 0.0774869 1.22519C0.0263392 1.34572 0 1.47508 0 1.60573C0 1.73639 0.0263392 1.86575 0.0774869 1.98628C0.128635 2.10682 0.203571 2.21613 0.29794 2.30786C0.39231 2.3996 0.504231 2.47193 0.6272 2.52064C0.750168 2.56936 0.881731 2.5935 1.01424 2.59165H25.0142C25.1468 2.5935 25.2783 2.56936 25.4013 2.52064C25.5243 2.47193 25.6362 2.3996 25.7305 2.30786C25.8249 2.21613 25.8999 2.10682 25.951 1.98628C26.0021 1.86575 26.0285 1.73639 26.0285 1.60573C26.0285 1.47508 26.0021 1.34572 25.951 1.22519C25.8999 1.10465 25.8249 0.995339 25.7305 0.903605C25.6362 0.811871 25.5243 0.739543 25.4013 0.690826C25.2783 0.642108 25.1468 0.617971 25.0142 0.619819H1.01424ZM1.01424 7.52123C0.881731 7.51938 0.750168 7.54352 0.6272 7.59223C0.504231 7.64095 0.39231 7.71328 0.29794 7.80501C0.203571 7.89675 0.128635 8.00606 0.0774869 8.12659C0.0263392 8.24713 0 8.37648 0 8.50714C0 8.6378 0.0263392 8.76716 0.0774869 8.88769C0.128635 9.00823 0.203571 9.11754 0.29794 9.20927C0.39231 9.30101 0.504231 9.37333 0.6272 9.42205C0.750168 9.47077 0.881731 9.49491 1.01424 9.49306H25.0142C25.1468 9.49491 25.2783 9.47077 25.4013 9.42205C25.5243 9.37333 25.6362 9.30101 25.7305 9.20927C25.8249 9.11754 25.8999 9.00823 25.951 8.88769C26.0021 8.76716 26.0285 8.6378 26.0285 8.50714C26.0285 8.37648 26.0021 8.24713 25.951 8.12659C25.8999 8.00606 25.8249 7.89675 25.7305 7.80501C25.6362 7.71328 25.5243 7.64095 25.4013 7.59223C25.2783 7.54352 25.1468 7.51938 25.0142 7.52123H1.01424ZM1.01424 14.4226C0.881731 14.4208 0.750168 14.4449 0.6272 14.4936C0.504231 14.5424 0.39231 14.6147 0.29794 14.7064C0.203571 14.7982 0.128635 14.9075 0.0774869 15.028C0.0263392 15.1485 0 15.2779 0 15.4086C0 15.5392 0.0263392 15.6686 0.0774869 15.7891C0.128635 15.9096 0.203571 16.0189 0.29794 16.1107C0.39231 16.2024 0.504231 16.2747 0.6272 16.3235C0.750168 16.3722 0.881731 16.3963 1.01424 16.3945H25.0142C25.1468 16.3963 25.2783 16.3722 25.4013 16.3235C25.5243 16.2747 25.6362 16.2024 25.7305 16.1107C25.8249 16.0189 25.8999 15.9096 25.951 15.7891C26.0021 15.6686 26.0285 15.5392 26.0285 15.4086C26.0285 15.2779 26.0021 15.1485 25.951 15.028C25.8999 14.9075 25.8249 14.7982 25.7305 14.7064C25.6362 14.6147 25.5243 14.5424 25.4013 14.4936C25.2783 14.4449 25.1468 14.4208 25.0142 14.4226H1.01424Z" fill="#2208C0"/>
</svg>
